<svg xmlns="http://www.w3.org/2000/svg" width="284.936" height="284.936"><path fill="none" d="M-1-1h582v402H-1z"/><g><path stroke="null" d="M135.917 3.536L3.39 136.586c-1.894 1.9-2.846 4.09-2.846 6.565 0 2.472.952 4.659 2.846 6.562l14.22 14.277c1.895 1.903 4.073 2.853 6.541 2.853s4.646-.95 6.542-2.853L142.46 51.783l111.771 112.206c1.896 1.903 4.077 2.853 6.539 2.853 2.467 0 4.649-.95 6.544-2.853l14.216-14.277c1.897-1.902 2.843-4.09 2.843-6.562 0-2.478-.948-4.665-2.843-6.563L149.004 3.536c-1.895-1.902-4.077-2.851-6.542-2.851s-4.645.949-6.545 2.85z"/><path stroke="null" d="M142.758 118.091c-2.46 0-4.637.947-6.532 2.857L3.959 253.99c-1.891 1.902-2.84 4.092-2.84 6.566s.949 4.665 2.84 6.567l14.192 14.274c1.892 1.906 4.065 2.856 6.529 2.856 2.464 0 4.637-.95 6.529-2.856l111.55-112.204L254.31 281.397c1.892 1.906 4.07 2.856 6.526 2.856 2.462 0 4.64-.95 6.532-2.856l14.187-14.273c1.894-1.903 2.838-4.093 2.838-6.567s-.946-4.664-2.838-6.567L149.287 120.948c-1.89-1.91-4.069-2.857-6.529-2.857z"/></g></svg>