<svg id="Режим_изоляции" data-name="Режим изоляции" xmlns="http://www.w3.org/2000/svg" viewBox="0 0 32.5 31.2"><defs><style>.cls-1{fill:#fff;stroke:#000;stroke-miterlimit:10;stroke-width:0.5px;fill-rule:evenodd;}</style></defs><title>email</title><path class="cls-1" d="M221.57,393a15.25,15.25,0,0,1,5.54-20.66,16.82,16.82,0,0,1,20.54,2.64c5.48,5.72,5.16,16.44-.18,20.61-2.43,1.89-6,.05-6-2.71l0-.9a9,9,0,0,1-6.37,2.65,9.13,9.13,0,0,1,0-18.26h0a9.18,9.18,0,0,1,6.43,2.77h0a1.33,1.33,0,0,1,1.31-1.43H243a1.45,1.45,0,0,1,1.43,1.48v12.63a.83.83,0,0,0,1.38.73c2-2.09,4.45-10.72-1.26-15.72a13.68,13.68,0,0,0-16.28-1.28,12.29,12.29,0,0,0-4.12,14.75c2.74,6.33,10.58,8.21,15.23,6.33,2.36-1,3.45,2.24,1,3.28-3.7,1.57-14,1.41-18.81-6.92m19.58-7.8a5.76,5.76,0,0,0-6-5.67h-.12c-3.66,0-5.69,2.88-5.69,6.15,0,3.66,2.45,6,5.67,6a6,6,0,0,0,6.13-5.74Z" transform="translate(-219.37 -369.7)"/></svg>