<?xml version="1.0" encoding="utf-8"?>
<!-- Generator: Adobe Illustrator 22.0.0, SVG Export Plug-In . SVG Version: 6.00 Build 0)  -->
<svg version="1.1" xmlns="http://www.w3.org/2000/svg" xmlns:xlink="http://www.w3.org/1999/xlink" x="0px" y="0px"
	 viewBox="0 0 12 13" style="enable-background:new 0 0 12 13;" xml:space="preserve">
<style type="text/css">
	.st0{enable-background:new    ;}
	.st1{fill-rule:evenodd;clip-rule:evenodd;fill:#FFFFFF;}
</style>
<g id="Прямоугольник_x2C__скругл._углы_2_копия_37_1_" class="st0">
	<g id="Прямоугольник_x2C__скругл._углы_2_копия_37">
		<g>
			<path class="st1" d="M11.8,5.3c-0.3-0.3-0.8-0.3-1.1,0L6,10.2L1.3,5.3C1,4.9,0.5,4.9,0.2,5.3c-0.3,0.3-0.3,0.8,0,1.2l5.1,5.4
				C5.5,12,5.8,12,6,12c0.2,0,0.5,0,0.7-0.2l5.1-5.4C12.1,6.1,12.1,5.6,11.8,5.3z"/>
		</g>
	</g>
</g>
<g id="Прямоугольник_x2C__скругл._углы_2_копия_37_kопировать_1_" class="st0">
	<g id="Прямоугольник_x2C__скругл._углы_2_копия_37_kопировать">
		<g>
			<path class="st1" d="M11.8,0.3c-0.3-0.3-0.8-0.3-1.1,0L6,5.2L1.3,0.3C1-0.1,0.5-0.1,0.2,0.3c-0.3,0.3-0.3,0.8,0,1.2l5.1,5.4
				C5.5,7,5.8,7,6,7c0.2,0,0.5,0,0.7-0.2l5.1-5.4C12.1,1.1,12.1,0.6,11.8,0.3z"/>
		</g>
	</g>
</g>
</svg>
