<?xml version="1.0" encoding="utf-8"?>
<!-- Generator: Adobe Illustrator 22.0.0, SVG Export Plug-In . SVG Version: 6.00 Build 0)  -->
<svg version="1.1" id="Фигура_9_1_" xmlns="http://www.w3.org/2000/svg" xmlns:xlink="http://www.w3.org/1999/xlink" x="0px"
	 y="0px" viewBox="0 0 24 20" style="enable-background:new 0 0 24 20;" xml:space="preserve">
<style type="text/css">
	.st0{fill-rule:evenodd;clip-rule:evenodd;fill:#FFFFFF;}
</style>
<g id="Фигура_9">
	<g>
		<path class="st0" d="M23.7,3.9c-0.5,0-1.1,0-1.6,0c-0.5,0-1.1,0-1.6,0c-0.3,0-0.3-0.1-0.3-0.3c0-0.9,0-1.8,0-2.7
			c0-0.9,0-0.9-0.9-0.9c-0.3,0-0.3,0.1-0.3,0.3c0,1.1,0,2.1,0,3.2c0,0.4-0.1,0.4-0.4,0.4c-0.9,0-1.8,0-2.7,0c-0.8,0-0.8,0-0.8,0.8
			c0,0.3,0.1,0.4,0.4,0.4c1.1,0,2.1,0,3.2,0c0.3,0,0.3,0.1,0.3,0.3c0,0.9,0,1.8,0,2.7c0,0.9,0,0.9,0.9,0.9c0.3,0,0.3-0.1,0.3-0.3
			c0-1.1,0-2.2,0-3.2c0-0.3,0.1-0.3,0.3-0.3c0.9,0,1.8,0,2.8,0c0.8,0,0.8,0,0.8-0.8C24,4,23.9,3.9,23.7,3.9z M10.8,10.8
			c-0.3-0.2-0.6-0.5-0.9-0.8c-0.3-0.4-0.3-0.8,0-1.2c0.2-0.3,0.5-0.5,0.8-0.7c1.4-1,2-2.4,1.8-4.1c-0.1-1.2-0.3-2.3-1.6-2.9
			c0.3-0.2,0.6-0.2,0.8-0.3c0.5-0.1,1-0.1,1.5-0.3c0.2-0.1,0.3-0.2,0.3-0.4c0-0.2-0.2-0.1-0.4-0.1c-1.6,0-3.2,0-4.8,0
			C7.6,0,6.8,0.1,6.1,0.3c-2.9,0.8-4.3,3-3.7,5.8c0.2,0.7,0.5,1.4,1,1.9c0.8,0.8,1.9,1,3,1.1c0.3,0,0.6-0.1,0.8,0.1
			c0.1,0.2,0.1,0.5,0,0.8c0,0.4,0.1,0.6,0.4,0.8c0.2,0.1,0.3,0.3,0.3,0.5c0.1,0.2,0,0.3-0.2,0.3c-0.4,0-0.8,0-1.2,0.1
			c-1.2,0.1-2.3,0.3-3.4,0.9c-0.9,0.5-1.6,1.1-1.9,2.2c-0.6,1.9,0.4,3.7,2.3,4.5C4.7,19.9,6,20.1,7.4,20c1.4-0.1,2.8-0.4,4-1.1
			c2.3-1.5,2.7-4.6,0.9-6.7C11.9,11.6,11.3,11.2,10.8,10.8z M6.4,7.6C5.2,6.7,4.7,5.4,4.7,4.2c0-0.8,0.1-1.4,0.4-2
			C5.7,1,7,0.7,8.1,1.4c1,0.7,1.5,1.7,1.8,2.9c0.1,0.8,0.1,1.6-0.2,2.3C9.1,8.1,7.6,8.5,6.4,7.6z M10.8,17.3
			c-1.6,1.5-4.6,1.8-6.3,0.5c-1.4-1.1-1.6-2.7-0.3-4c1-0.9,2.2-1.2,3.4-1.3c1.1,0,2.1,0.3,2.9,0.9C11.9,14.4,12,16.1,10.8,17.3z"/>
	</g>
</g>
</svg>
