<?xml version="1.0" encoding="utf-8"?>
<!-- Generator: Adobe Illustrator 22.0.0, SVG Export Plug-In . SVG Version: 6.00 Build 0)  -->
<svg version="1.1" id="Фигура_6_1_" xmlns="http://www.w3.org/2000/svg" xmlns:xlink="http://www.w3.org/1999/xlink" x="0px"
	 y="0px" viewBox="0 0 22 23" style="enable-background:new 0 0 22 23;" xml:space="preserve">
<style type="text/css">
	.st0{fill-rule:evenodd;clip-rule:evenodd;fill:#FFFFFF;}
</style>
<g id="Фигура_6">
	<g>
		<path class="st0" d="M15.5,0.8H6.2C2.8,0.8,0,3.6,0,6.9v9.2c0,3.3,2.8,6.1,6.1,6.1h9.3c3.4,0,6.1-2.7,6.1-6.1V6.9
			C21.6,3.6,18.9,0.8,15.5,0.8z M19.8,16.1c0,2.3-1.9,4.2-4.3,4.2H6.2c-2.4,0-4.3-1.9-4.3-4.2V6.9c0-2.3,1.9-4.2,4.3-4.2h9.3
			c2.4,0,4.3,1.9,4.3,4.2V16.1z M10.8,6c-3,0-5.5,2.4-5.5,5.5c0,3,2.5,5.5,5.5,5.5c3,0,5.5-2.4,5.5-5.5C16.4,8.5,13.9,6,10.8,6z
			 M10.8,15.1c-2,0-3.7-1.6-3.7-3.6c0-2,1.7-3.6,3.7-3.6c2,0,3.7,1.6,3.7,3.6C14.5,13.5,12.9,15.1,10.8,15.1z M16.6,4.4
			c-0.7,0-1.3,0.6-1.3,1.3c0,0.7,0.6,1.3,1.3,1.3s1.3-0.6,1.3-1.3C17.9,5,17.3,4.4,16.6,4.4z"/>
	</g>
</g>
</svg>
