<?xml version="1.0" encoding="utf-8"?>
<!-- Generator: Adobe Illustrator 22.0.0, SVG Export Plug-In . SVG Version: 6.00 Build 0)  -->
<svg version="1.1" id="Forma_1_1_" xmlns="http://www.w3.org/2000/svg" xmlns:xlink="http://www.w3.org/1999/xlink" x="0px" y="0px"
	 viewBox="0 0 21 22" style="enable-background:new 0 0 21 22;" xml:space="preserve">
<style type="text/css">
	.st0{fill-rule:evenodd;clip-rule:evenodd;fill:#A9B7C5;}
</style>
<g id="Forma_1">
	<g>
		<path class="st0" d="M4.3,13.5c0,0.6,0.5,1.1,1.2,1.1H6v-2.3H5.4C4.8,12.3,4.3,12.8,4.3,13.5z M7.2,18h0.6C8.4,18,9,17.5,9,16.9
			c0-0.6-0.5-1.1-1.2-1.1H7.2V18z M13.4,15.4c0-3.6-3-6.6-6.7-6.6C3,8.8,0,11.8,0,15.4C0,19,3,22,6.7,22C10.4,22,13.4,19,13.4,15.4z
			 M7.8,14.6c1.3,0,2.3,1,2.3,2.3c0,1.3-1,2.3-2.3,2.3H7.2v0.6c0,0.3-0.3,0.6-0.6,0.6c-0.3,0-0.6-0.3-0.6-0.6v-0.6H3.7
			c-0.3,0-0.6-0.3-0.6-0.6c0-0.3,0.3-0.6,0.6-0.6H6v-2.3H5.4c-1.3,0-2.3-1-2.3-2.3c0-1.3,1-2.3,2.3-2.3H6v-0.4
			c0-0.3,0.3-0.6,0.6-0.6c0.3,0,0.6,0.3,0.6,0.6v0.4h2.4c0.3,0,0.6,0.3,0.6,0.6c0,0.3-0.3,0.6-0.6,0.6H7.2v2.3H7.8z M20.9,7.9
			l-7.2-7.8C13.5,0.1,13.4,0,13.2,0c-0.2,0-0.3,0.1-0.4,0.2l-7,7.6c0.3,0,0.6-0.1,0.9-0.1c4.3,0,7.9,3.5,7.9,7.7
			c0,2.8-1.5,5.3-3.8,6.6h5.5c0.3,0,0.6-0.3,0.6-0.6V8.9h3.6c0.2,0,0.4-0.1,0.5-0.3C21,8.3,21,8.1,20.9,7.9z"/>
	</g>
</g>
</svg>
