<?xml version="1.0" encoding="iso-8859-1"?>
<!-- Generator: Adobe Illustrator 19.0.0, SVG Export Plug-In . SVG Version: 6.00 Build 0)  -->
<svg version="1.1" id="Capa_1" xmlns="http://www.w3.org/2000/svg" xmlns:xlink="http://www.w3.org/1999/xlink" x="0px" y="0px"
	 viewBox="0 0 512 512" style="enable-background:new 0 0 512 512;" xml:space="preserve">
<g>
	<g>
		<circle cx="127" cy="215.5" r="7.5"/>
	</g>
</g>
<g>
	<g>
		<circle cx="183" cy="215.5" r="7.5"/>
	</g>
</g>
<g>
	<g>
		<circle cx="155" cy="215.5" r="7.5"/>
	</g>
</g>
<g>
	<g>
		<path d="M282.773,335.357c-1.809-14.732-13.837-26.602-28.601-28.222c-9.236-1.015-18.468,1.936-25.335,8.091
			c-6.872,6.159-10.813,14.983-10.813,24.208c0,8.878,3.625,17.333,10,23.45v32.55c0,12.407,10.093,22.501,22.5,22.501
			c12.407,0,22.5-10.093,22.5-22.5v-32.55C280.404,355.801,284.034,345.632,282.773,335.357z M261.987,352.658
			c-2.518,2.184-3.962,5.346-3.962,8.675v34.102c0,4.136-3.365,7.5-7.5,7.5c-4.135,0-7.5-3.364-7.5-7.5v-34.103
			c0-3.33-1.441-6.49-3.956-8.669c-3.841-3.33-6.044-8.151-6.044-13.228c-0.001-4.969,2.122-9.721,5.824-13.039
			c3.25-2.913,7.333-4.462,11.666-4.462c0.668,0,1.343,0.037,2.021,0.111c7.924,0.87,14.379,7.236,15.349,15.139
			C268.615,343.131,266.464,348.771,261.987,352.658z"/>
	</g>
</g>
<g>
	<g>
		<path d="M351.667,497H114c-9.649,0-17.5-7.851-17.5-17.5V320c0-4.142-3.358-7.5-7.5-7.5c-4.142,0-7.5,3.358-7.5,7.5v159.5
			c0,17.92,14.58,32.5,32.5,32.5h237.667c4.143,0,7.5-3.358,7.5-7.5C359.167,500.358,355.81,497,351.667,497z"/>
	</g>
</g>
<g>
	<g>
		<path d="M398,177h-58.5v-17c0-4.142-3.357-7.5-7.5-7.5s-7.5,3.358-7.5,7.5v17h-15V83.5c0-29.5-24-53.5-53.5-53.5
			s-53.5,24-53.5,53.5V177h-15V83.5c0-37.771,30.729-68.5,68.5-68.5s68.5,30.729,68.5,68.5v44.25c0,4.142,3.357,7.5,7.5,7.5
			s7.5-3.358,7.5-7.5V83.5C339.5,37.458,302.042,0,256,0s-83.5,37.458-83.5,83.5V177H114c-17.92,0-32.5,14.58-32.5,32.5V288
			c0,4.142,3.358,7.5,7.5,7.5c4.142,0,7.5-3.358,7.5-7.5v-33.5h319v225c0,9.649-7.851,17.5-17.5,17.5h-14
			c-4.143,0-7.5,3.358-7.5,7.5c0,4.142,3.357,7.5,7.5,7.5h14c17.921,0,32.5-14.58,32.5-32.5v-270C430.5,191.58,415.921,177,398,177z
			 M209.5,239.5h-113v-30c0-9.649,7.851-17.5,17.5-17.5h95.5V239.5z M217.5,83.5c0-21.229,17.271-38.5,38.5-38.5
			s38.5,17.271,38.5,38.5V177h-77V83.5z M415.5,239.5h-191V192H398c9.649,0,17.5,7.851,17.5,17.5V239.5z"/>
	</g>
</g>
<g>
</g>
<g>
</g>
<g>
</g>
<g>
</g>
<g>
</g>
<g>
</g>
<g>
</g>
<g>
</g>
<g>
</g>
<g>
</g>
<g>
</g>
<g>
</g>
<g>
</g>
<g>
</g>
<g>
</g>
</svg>
