<svg xmlns="http://www.w3.org/2000/svg" viewBox="0 0 471.235 471.235"><g fill="#010002"><path d="M70.655 340.365c-36.217 0-65.467 29.315-65.467 65.424 0 36.153 29.25 65.424 65.467 65.424 36.131 0 65.403-29.272 65.403-65.424-.022-36.109-29.272-65.424-65.403-65.424zM5.188 0v78.086c211.76 4.249 382.687 177.7 382.687 390.517 0 .884-.043 1.79-.043 2.632h78.151c0-.884.065-1.747.065-2.632C466.026 212.753 260.003 4.249 5.188 0z"/><path d="M5.188 156.496v78.129c125.434 4.185 226.191 107.444 226.191 233.978 0 .884-.022 1.79-.086 2.632h78.151c0-.841.086-1.747.086-2.632-.022-169.567-135.853-307.858-304.342-312.107z"/></g></svg>