<?xml version="1.0" encoding="utf-8"?>
<!-- Generator: Adobe Illustrator 22.0.0, SVG Export Plug-In . SVG Version: 6.00 Build 0)  -->
<svg version="1.1" id="Прямоугольник_x2C__скругл._углы_2_копия_41_1_"
	 xmlns="http://www.w3.org/2000/svg" xmlns:xlink="http://www.w3.org/1999/xlink" x="0px" y="0px" viewBox="0 0 16 12"
	 style="enable-background:new 0 0 16 12;" xml:space="preserve">
<style type="text/css">
	.st0{fill-rule:evenodd;clip-rule:evenodd;fill:#FFFFFF;}
	.st1{fill:#FFFFFF;}
</style>
<g id="Прямоугольник_x2C__скругл._углы_2_копия_41">
	<g>
		<path class="st0" d="M6.2,11.2c-0.1,0-0.1,0-0.2,0c0,0,0,0-0.1,0c-0.3,0-0.5-0.1-0.7-0.3L1.1,6.6c-0.4-0.4-0.4-1.1,0-1.5
			c0.2-0.2,0.5-0.3,0.7-0.3s0.5,0.1,0.7,0.3L6,8.8l7.5-7.7c0.2-0.2,0.5-0.3,0.7-0.3c0.3,0,0.5,0.1,0.7,0.3c0.4,0.4,0.4,1.1,0,1.5
			l-8.1,8.4C6.7,11.1,6.4,11.2,6.2,11.2L6.2,11.2z"/>
	</g>
	<g>
		<path class="st1" d="M14.2,1c0.2,0,0.4,0.1,0.6,0.2c0.3,0.3,0.3,0.8,0,1.2l-8.1,8.4C6.5,10.9,6.4,11,6.2,11c0,0-0.1,0-0.1,0
			c0,0-0.1,0-0.1,0c-0.2,0-0.4-0.1-0.5-0.2L1.3,6.4c-0.3-0.3-0.3-0.8,0-1.2C1.4,5.1,1.6,5,1.8,5C2,5,2.2,5.1,2.4,5.2L6,9.1l7.6-7.9
			C13.8,1.1,14,1,14.2,1 M14.2,0.5c-0.3,0-0.7,0.1-0.9,0.4L6,8.4L2.7,4.9C2.5,4.6,2.2,4.5,1.8,4.5c-0.3,0-0.7,0.1-0.9,0.4
			c-0.5,0.5-0.5,1.3,0,1.9L5,11.1c0.2,0.2,0.6,0.4,0.9,0.4c0,0,0.1,0,0.1,0c0,0,0.1,0,0.1,0c0.3,0,0.7-0.1,0.9-0.4l8.1-8.4
			c0.5-0.5,0.5-1.3,0-1.9C14.9,0.6,14.6,0.5,14.2,0.5L14.2,0.5z"/>
	</g>
</g>
</svg>
